# xmcd
#
# Track frame offsets:
#	150
#	9236
#	42338
#	96759
#	154482
#	165185
#	177000
#	191628
#	204333
#	216123
#	232309
#	260683
#
# Disc length: 3603 seconds
#
# Revision: 0
# Processed by: cddbd v1.5.2PL0 Copyright (c) Steve Scherf et al.
# Submitted via: EZCDAudioConverter 3.0.6.1
#
DISCID=9d0e110c
DTITLE=Willie Nelson - Live Country Music Concert 1966
DYEAR=1966
DGENRE=Country
TTITLE0=Willie Introduces Band
TTITLE1=Medley1
TTITLE2=Medley;The Last Letter/Half A Man
TTITLE3=I Never Cared For You
TTITLE4=Yesterday
TTITLE5=Touch Me
TTITLE6=Something To Think About
TTITLE7=I Just Can't Let You Say Goodbye
TTITLE8=How Long Is Forever
TTITLE9=Night Life
TTITLE10=Medley;Opportunity To Cry/Permanently Lonely
TTITLE11=My Own Peculiar Way
EXTD=
EXTT0=
EXTT1=
EXTT2=
EXTT3=
EXTT4=
EXTT5=
EXTT6=
EXTT7=
EXTT8=
EXTT9=
EXTT10=
EXTT11=
PLAYORDER=
